<svg width="1024" height="1024" viewBox="0 0 1024 1024" fill="none" xmlns="http://www.w3.org/2000/svg">
<path d="M508.994 226.091C517.66 221.084 528.34 221.085 537.006 226.091L758.036 353.773C764.821 357.692 769.653 364.274 771.359 371.922L827.811 624.99C830.335 636.302 825.629 647.998 815.975 654.41L538.492 838.711C529.105 844.945 516.895 844.945 507.508 838.711L230.025 654.41C220.371 647.998 215.665 636.302 218.189 624.99L274.641 371.922C276.347 364.274 281.179 357.692 287.964 353.773L508.994 226.091Z" fill="black"/>
<path d="M810.371 635.233L528 822.679V507.844L752.612 376.278L810.371 635.233Z" fill="url(#paint0_linear_5_2)" stroke="black" stroke-width="10" stroke-linejoin="round"/>
<path d="M235.629 635.233L518 822.679V508.854L293.383 376.301L235.629 635.233Z" fill="url(#paint1_linear_5_2)" stroke="black" stroke-width="10" stroke-linejoin="round"/>
<path d="M746.081 368.548L523 500.194L299.918 368.548L523 239.772L746.081 368.548Z" fill="url(#paint2_linear_5_2)" stroke="black" stroke-width="10" stroke-linejoin="round"/>
<g filter="url(#filter0_d_5_2)">
<path d="M523.016 277.849C524.603 276.932 526.552 276.474 528.862 276.474C531.171 276.474 533.12 276.932 534.707 277.849L674.573 358.593C676.161 359.51 676.955 360.635 676.955 361.968C676.955 363.301 676.161 364.426 674.573 365.343L629.972 391.091C628.384 392.008 626.436 392.466 624.126 392.466C621.817 392.466 619.868 392.008 618.281 391.091L572.164 364.468L528.862 389.466L574.978 416.09C576.566 417.006 577.36 418.131 577.36 419.464C577.36 420.798 576.566 421.923 574.978 422.839L530.377 448.588C528.789 449.504 526.913 450.004 524.748 450.087C522.438 450.087 520.418 449.587 518.686 448.588L378.819 367.843C377.232 366.926 376.438 365.801 376.438 364.468C376.438 363.135 377.232 362.01 378.819 361.093L423.421 335.345C425.008 334.428 426.957 333.97 429.266 333.97C431.576 333.97 433.524 334.428 435.112 335.345L479.497 360.968L522.799 335.97L478.414 310.347C476.827 309.43 476.033 308.305 476.033 306.972C476.033 305.639 476.827 304.514 478.414 303.597L523.016 277.849Z" fill="url(#paint3_linear_5_2)"/>
</g>
<g filter="url(#filter1_d_5_2)">
<path d="M523.016 269.849C524.603 268.932 526.552 268.474 528.862 268.474C531.171 268.474 533.12 268.932 534.707 269.849L674.573 350.593C676.161 351.51 676.955 352.635 676.955 353.968C676.955 355.301 676.161 356.426 674.573 357.343L629.972 383.091C628.384 384.008 626.436 384.466 624.126 384.466C621.817 384.466 619.868 384.008 618.281 383.091L572.164 356.468L528.862 381.466L574.978 408.09C576.566 409.006 577.36 410.131 577.36 411.464C577.36 412.798 576.566 413.923 574.978 414.839L530.377 440.588C528.789 441.504 526.913 442.004 524.748 442.087C522.438 442.087 520.418 441.587 518.686 440.588L378.819 359.843C377.232 358.926 376.438 357.801 376.438 356.468C376.438 355.135 377.232 354.01 378.819 353.093L423.421 327.345C425.008 326.428 426.957 325.97 429.266 325.97C431.576 325.97 433.524 326.428 435.112 327.345L479.497 352.968L522.799 327.97L478.414 302.347C476.827 301.43 476.033 300.305 476.033 298.972C476.033 297.639 476.827 296.514 478.414 295.597L523.016 269.849Z" fill="url(#paint4_linear_5_2)"/>
</g>
<defs>
<filter id="filter0_d_5_2" x="368.974" y="274.474" width="315.446" height="188.488" filterUnits="userSpaceOnUse" color-interpolation-filters="sRGB">
<feFlood flood-opacity="0" result="BackgroundImageFix"/>
<feColorMatrix in="SourceAlpha" type="matrix" values="0 0 0 0 0 0 0 0 0 0 0 0 0 0 0 0 0 0 127 0" result="hardAlpha"/>
<feOffset dy="7"/>
<feGaussianBlur stdDeviation="2"/>
<feComposite in2="hardAlpha" operator="out"/>
<feColorMatrix type="matrix" values="0 0 0 0 0 0 0 0 0 0 0 0 0 0 0 0 0 0 0.25 0"/>
<feBlend mode="normal" in2="BackgroundImageFix" result="effect1_dropShadow_5_2"/>
<feBlend mode="normal" in="SourceGraphic" in2="effect1_dropShadow_5_2" result="shape"/>
</filter>
<filter id="filter1_d_5_2" x="368.974" y="266.474" width="315.446" height="188.488" filterUnits="userSpaceOnUse" color-interpolation-filters="sRGB">
<feFlood flood-opacity="0" result="BackgroundImageFix"/>
<feColorMatrix in="SourceAlpha" type="matrix" values="0 0 0 0 0 0 0 0 0 0 0 0 0 0 0 0 0 0 127 0" result="hardAlpha"/>
<feOffset dy="7"/>
<feGaussianBlur stdDeviation="2"/>
<feComposite in2="hardAlpha" operator="out"/>
<feColorMatrix type="matrix" values="0 0 0 0 0 0 0 0 0 0 0 0 0 0 0 0 0 0 0.25 0"/>
<feBlend mode="normal" in2="BackgroundImageFix" result="effect1_dropShadow_5_2"/>
<feBlend mode="normal" in="SourceGraphic" in2="effect1_dropShadow_5_2" result="shape"/>
</filter>
<linearGradient id="paint0_linear_5_2" x1="816" y1="638.5" x2="531" y2="500.5" gradientUnits="userSpaceOnUse">
<stop offset="0.357925"/>
<stop offset="1" stop-color="#0C0C0C"/>
</linearGradient>
<linearGradient id="paint1_linear_5_2" x1="212" y1="641" x2="507" y2="506.5" gradientUnits="userSpaceOnUse">
<stop offset="0.276567"/>
<stop offset="1" stop-color="#0C0C0C"/>
</linearGradient>
<linearGradient id="paint2_linear_5_2" x1="523" y1="234" x2="523" y2="506" gradientUnits="userSpaceOnUse">
<stop offset="0.254808" stop-color="#0C0C0C"/>
<stop offset="1" stop-color="#343434"/>
</linearGradient>
<linearGradient id="paint3_linear_5_2" x1="663.014" y1="446.665" x2="524.905" y2="222.971" gradientUnits="userSpaceOnUse">
<stop stop-color="#842A5D"/>
<stop offset="1" stop-color="#4C0C30"/>
</linearGradient>
<linearGradient id="paint4_linear_5_2" x1="663.014" y1="438.665" x2="524.905" y2="214.971" gradientUnits="userSpaceOnUse">
<stop stop-color="#FF59B7"/>
<stop offset="1" stop-color="#831353"/>
</linearGradient>
</defs>
</svg>
