<svg width="1024" height="1024" viewBox="0 0 1024 1024" fill="none" xmlns="http://www.w3.org/2000/svg">
<path d="M346.199 419.517C331.744 408.648 311.162 411.908 300.774 426.712L291.626 439.747C288.835 443.724 285.174 447.014 280.922 449.366L271.83 454.396C253.421 464.58 249.679 489.453 264.278 504.602L267.784 508.241C271.672 512.275 274.432 517.259 275.789 522.695L277.859 530.987C282.513 549.632 302.436 559.999 320.376 553.111L336.365 546.972C340.553 545.364 345.032 544.655 349.512 544.89L366.615 545.787C385.806 546.794 401.55 530.779 400.215 511.608L399.621 503.082C399.232 497.493 400.317 491.9 402.768 486.861L404.978 482.317C414.18 463.399 402.936 440.899 382.281 436.903L372.079 434.928C367.309 434.005 362.811 432.008 358.927 429.088L346.199 419.517Z" fill="#FF9100"/>
<path d="M678.098 418.985C692.552 408.116 713.135 411.376 723.523 426.179L732.671 439.215C735.462 443.192 739.123 446.482 743.375 448.834L752.467 453.864C770.876 464.048 774.617 488.921 760.019 504.07L756.513 507.709C752.625 511.743 749.865 516.727 748.508 522.163L746.438 530.455C741.783 549.1 721.861 559.467 703.921 552.579L687.932 546.44C683.744 544.832 679.265 544.123 674.785 544.358L657.681 545.255C638.491 546.262 622.747 530.247 624.082 511.076L624.676 502.55C625.065 496.961 623.98 491.367 621.529 486.329L619.319 481.785C610.116 462.866 621.361 440.367 642.016 436.37L652.218 434.396C656.988 433.473 661.486 431.476 665.37 428.555L678.098 418.985Z" fill="#990000"/>
<rect x="155" y="395.089" width="505" height="505" rx="23" transform="rotate(-45 155 395.089)" fill="url(#paint0_linear_19_2)"/>
<path d="M446 718V944" stroke="url(#paint1_linear_19_2)" stroke-width="68" stroke-linecap="round"/>
<path d="M580 722V943.5" stroke="url(#paint2_linear_19_2)" stroke-width="66" stroke-linecap="round"/>
<path d="M311.368 770V898C311.368 935 251.368 934 251.368 934C251.368 934 214.368 930.5 199.868 906.5C175.586 866.308 208.868 832.5 208.868 832.5" stroke="url(#paint3_linear_19_2)" stroke-width="67" stroke-linecap="round"/>
<path d="M713.5 780V908C713.5 945 773.5 944 773.5 944C773.5 944 810.5 940.5 825 916.5C849.282 876.308 816 842.5 816 842.5" stroke="url(#paint4_linear_19_2)" stroke-width="67" stroke-linecap="round"/>
<path d="M278 485.5C278 454.705 284.066 424.212 295.85 395.761C307.635 367.31 324.908 341.459 346.683 319.684C368.459 297.908 394.31 280.635 422.761 268.85C451.212 257.066 481.705 251 512.5 251C543.295 251 573.788 257.066 602.239 268.85C630.69 280.635 656.541 297.908 678.317 319.684C700.092 341.459 717.365 367.31 729.15 395.761C740.934 424.212 747 454.705 747 485.5H512.5H278Z" fill="url(#paint5_linear_19_2)"/>
<path d="M747 790H679.994C679.727 771.729 664.835 757 646.5 757C628.165 757 613.273 771.729 613.006 790H546.994C546.727 771.729 531.835 757 513.5 757C495.165 757 480.273 771.729 480.006 790H411.994C411.727 771.729 396.835 757 378.5 757C360.165 757 345.273 771.729 345.006 790H278V483H747V790ZM375 568C339.654 568 311 596.654 311 632C311 667.346 339.654 696 375 696C410.346 696 439 667.346 439 632C439 596.654 410.346 568 375 568ZM654 568C618.654 568 590 596.654 590 632C590 667.346 618.654 696 654 696C689.346 696 718 667.346 718 632C718 596.654 689.346 568 654 568Z" fill="url(#paint6_linear_19_2)"/>
<defs>
<linearGradient id="paint0_linear_19_2" x1="28.4908" y1="696.254" x2="361.538" y2="1026.47" gradientUnits="userSpaceOnUse">
<stop stop-color="#FF9100"/>
<stop offset="1" stop-color="#990000"/>
</linearGradient>
<linearGradient id="paint1_linear_19_2" x1="282.819" y1="906.701" x2="737.192" y2="907.405" gradientUnits="userSpaceOnUse">
<stop stop-color="#FF9100"/>
<stop offset="1" stop-color="#990000"/>
</linearGradient>
<linearGradient id="paint2_linear_19_2" x1="280" y1="901" x2="747.544" y2="898.988" gradientUnits="userSpaceOnUse">
<stop stop-color="#FF9100"/>
<stop offset="1" stop-color="#990000"/>
</linearGradient>
<linearGradient id="paint3_linear_19_2" x1="277" y1="897.5" x2="748.5" y2="896" gradientUnits="userSpaceOnUse">
<stop stop-color="#FF9100"/>
<stop offset="1" stop-color="#990000"/>
</linearGradient>
<linearGradient id="paint4_linear_19_2" x1="276.5" y1="906" x2="748" y2="910.5" gradientUnits="userSpaceOnUse">
<stop stop-color="#FF9100"/>
<stop offset="1" stop-color="#990000"/>
</linearGradient>
<linearGradient id="paint5_linear_19_2" x1="278" y1="698" x2="747" y2="695.5" gradientUnits="userSpaceOnUse">
<stop stop-color="#FF9100"/>
<stop offset="1" stop-color="#990000"/>
</linearGradient>
<linearGradient id="paint6_linear_19_2" x1="278" y1="699.5" x2="747" y2="695.5" gradientUnits="userSpaceOnUse">
<stop stop-color="#FF9100"/>
<stop offset="1" stop-color="#990000"/>
</linearGradient>
</defs>
</svg>
