<svg width="1024" height="1024" viewBox="0 0 1024 1024" fill="none" xmlns="http://www.w3.org/2000/svg">
<path d="M384 196V260H234V196H384ZM787 260H640V196H787V260Z" fill="black"/>
<path d="M341 260V702H277V260H341ZM746 702H683V260H746V702Z" fill="black"/>
<path d="M744 701.5C744 732.295 737.934 762.788 726.149 791.239C714.365 819.69 697.092 845.541 675.316 867.316C653.541 889.092 627.69 906.365 599.239 918.149C570.788 929.934 540.295 936 509.5 936C479.186 936 449.164 930.123 421.096 918.698L419.761 918.149C391.754 906.549 366.267 889.63 344.707 868.334L343.684 867.316C322.249 845.881 305.175 820.497 293.406 792.571L292.851 791.239C281.066 762.788 275 732.295 275 701.5H744ZM341 702C341 723.405 345.423 744.601 354.017 764.377C354.18 764.752 354.347 765.126 354.513 765.5H351.471C351.639 765.916 351.807 766.332 351.979 766.747C360.547 787.433 373.106 806.229 388.938 822.062C404.771 837.894 423.567 850.453 444.253 859.021C464.939 867.59 487.11 872 509.5 872C531.89 872 554.061 867.59 574.747 859.021C595.433 850.453 614.229 837.894 630.062 822.062C636.998 815.125 643.306 807.619 648.926 799.635C657.438 788.788 664.521 776.948 669.983 764.377C678.577 744.601 683 723.405 683 702H341Z" fill="black"/>
<path d="M640 710C640 725.102 636.689 740.056 630.257 754.009C623.824 767.961 614.396 780.639 602.51 791.317C590.624 801.996 576.513 810.467 560.983 816.246C545.454 822.025 528.809 825 512 825C495.191 825 478.546 822.025 463.017 816.246C447.487 810.467 433.376 801.996 421.49 791.317C409.604 780.639 400.176 767.961 393.743 754.009C387.311 740.056 384 725.102 384 710L512 710H640Z" fill="black"/>
<path d="M640 710H384V445L640 338.396V710Z" fill="black"/>
<path d="M598 494V595" stroke="white" stroke-width="31" stroke-linecap="round"/>
<circle cx="598" cy="445" r="16" fill="white"/>
</svg>
